<svg xmlns="http://www.w3.org/2000/svg" width="24" height="24" viewBox="0 0 24 24">
    <defs>
        <style>
            .cls-2{fill:#2d2d37}
        </style>
    </defs>
    <g id="edit-24px" opacity="0.68">
        <g id="icon">
            <path id="Trazado_127" d="M19 12v7H5V5h7V3H5a2.006 2.006 0 0 0-2 2v14a2.006 2.006 0 0 0 2 2h14a2.006 2.006 0 0 0 2-2v-7z" class="cls-2"/>
            <path id="Trazado_128" d="M20.59 4.59L11.17 14 10 12.83l9.39-9.39.6.57zM18 2L8 12v4h4L22 6a2.77 2.77 0 0 0 0-4 2.77 2.77 0 0 0-4 0z" class="cls-2"/>
        </g>
        <path id="Rectángulo_115" fill="none" d="M0 0H24V24H0z"/>
    </g>
</svg>
